<svg width="204" height="204" viewBox="0 0 204 204" fill="none" xmlns="http://www.w3.org/2000/svg">
<path fill-rule="evenodd" clip-rule="evenodd" d="M125.506 134.782C116.262 131.742 102.309 135.387 92.2776 133.132C83.9452 131.259 75.9104 123.099 74.115 114.983C72.7242 108.695 84.3278 106.708 88.3559 104.877C92.8332 103.041 96.7457 101.348 99.501 97.6586C101.634 94.7918 103.767 91.8835 105.899 88.9965C109.664 86.0824 115.738 85.1481 119.315 81.7782C119.108 81.2968 118.902 80.8156 118.696 80.3343C113.007 78.4684 99.0158 62.3799 97.0243 56.4105C96.2916 54.2141 93.6191 44.8199 95.9926 43.0052C97.9989 42.5096 100.733 45.1206 102.184 45.8923C108.751 49.1284 115.651 51.0966 120.759 55.5858C122.959 57.5017 125.397 61.0874 128.396 61.979C126.538 58.8171 124.681 55.654 122.823 52.492C119.18 44.2874 117.712 35.0011 117.664 23.206H118.076L118.696 23C121.737 27.0248 127.347 29.5372 131.491 32.487L133.919 35.301C136.55 38.3502 139.181 41.3999 141.811 44.4489C147.364 52.1954 147.223 62.8574 151.718 71.6724C154.897 77.9085 160.272 82.1333 165.752 86.1092C168.155 87.8521 170.204 91.2988 173.389 92.0901C173.389 92.0901 175.663 92.8015 176.485 93.9463C177.754 95.7142 176.278 99.5147 176.278 99.5147C172.285 108.161 165.734 111.623 156.259 114.776V115.807L161.831 120.345C169.954 129.508 160.332 134.318 152.337 136.638C147.873 137.933 143.095 136.311 138.715 137.05V137.256C140.028 139.38 143.332 140.516 145.32 142L125.506 134.782ZM138.922 85.284C140.194 82.6514 141.862 81.9069 144.701 80.747C146.42 80.8843 148.141 81.0219 149.86 81.1594C149.998 81.5717 150.136 81.9844 150.273 82.3969C148.048 86.4066 144 87.4543 139.128 86.1092L138.922 85.284ZM131.285 85.078C130.84 83.6012 131.924 82.6404 132.85 81.8203C133.026 81.6644 133.196 81.5137 133.349 81.3655C134.788 81.3434 135.933 81.4803 136.858 81.7782C136.89 81.9378 136.922 82.0974 136.954 82.2571C136.99 82.4412 137.027 82.6253 137.064 82.8094L135 85.6967C133.821 86.0065 132.882 86.0578 131.491 85.9029C131.423 85.6278 131.354 85.3529 131.285 85.078ZM146.764 96.2149C148.332 95.4438 150.018 95.2111 151.765 94.97C153.298 94.7583 154.878 94.5403 156.465 93.9463C161.413 94.303 164.932 95.4381 168.47 96.5795C169.61 96.9471 170.752 97.3154 171.944 97.6586L171.965 97.7019C172.216 98.2071 172.314 98.403 172.357 99.3085C164.838 109.271 154.982 113.124 139.954 108.795C139.816 108.589 139.678 108.383 139.541 108.177C140.745 107.299 149.998 107.498 152.543 107.558L152.75 107.352C152.392 106.35 151.517 106.168 150.502 105.956C150.451 105.946 150.4 105.935 150.349 105.924C150.324 105.919 150.298 105.914 150.273 105.908V105.289V105.083C153.506 103.914 156.74 102.746 159.974 101.577V100.958C158.459 101.078 156.937 101.197 155.412 101.316C154.72 101.371 154.027 101.425 153.334 101.479L153.331 101.479L153.329 101.479C153.325 101.48 153.32 101.48 153.316 101.48C153.313 101.481 153.309 101.481 153.306 101.481C152.019 101.582 150.732 101.683 149.448 101.783C149.207 101.004 149.521 100.738 149.938 100.387C150.266 100.11 150.658 99.7792 150.892 99.102C148.056 98.9671 144.309 100.941 141.318 102.516C140.524 102.934 139.784 103.324 139.128 103.639H138.302V102.815C139.771 102.037 141.04 100.848 142.325 99.6433C143.699 98.3559 145.092 97.0515 146.764 96.2149ZM118.586 95.9859L119.934 95.8022L123.649 96.2149C125.691 100.721 114.314 110.231 108.169 107.146H107.757V106.939C109.614 106.252 111.472 105.564 113.329 104.877C114.501 103.736 114.033 102.726 115.806 101.99L116.012 101.165C112.564 101.72 110.694 104.459 107.55 105.083L107.138 104.67C107.878 101.1 112.212 97.6136 115.393 96.4209C116.457 96.276 117.522 96.131 118.586 95.9859ZM127.983 118.282C129.176 117.874 130.543 117.608 131.95 117.334C133.677 116.998 135.464 116.651 137.064 116.014C146.277 115.874 152.693 119.704 156.878 124.676C157.1 124.969 157.538 125.321 158.024 125.712C159.074 126.556 160.351 127.582 160.18 128.594C159.953 129.938 156.88 130.676 154.768 131.183C154.313 131.292 153.903 131.39 153.575 131.482C143.105 134.716 131.061 131.915 126.538 124.47L126.951 124.057C129.582 124.413 132.698 125.923 135.45 127.258C136.465 127.749 137.429 128.217 138.302 128.594C138.509 128.388 138.715 128.182 138.922 127.976L136.445 126.12V125.501C139.017 125.655 141.59 125.809 144.163 125.964L146.764 126.12H147.177L147.384 125.707C145.335 124.974 143.268 124.242 141.201 123.509L141.2 123.508C140.164 123.141 139.129 122.774 138.096 122.407L137.683 121.788C138.228 121.127 138.669 120.831 139.954 120.757L140.366 120.138C138.688 118.917 133.973 119.193 130.457 119.4C129.521 119.455 128.669 119.505 127.983 119.52L127.57 118.901L127.983 118.282Z" fill="white"/>
<path d="M102.216 14C114.241 14 125.705 16.4073 136.151 20.7646C131.477 19.7618 126.627 19.2334 121.653 19.2334C103.098 19.2335 86.2596 26.5817 73.8877 38.5264C73.9054 38.2972 73.9102 38.1699 73.9102 38.1699C73.8834 38.1723 67.9509 38.7002 64.1865 42.6953C60.4137 46.6996 58.6497 51.1665 60.2471 52.6719C60.7332 53.1299 61.4745 53.2586 62.377 53.1064C56.3387 63.3385 52.875 75.2707 52.875 88.0117C52.875 125.997 83.668 156.791 121.653 156.791C123.934 156.791 126.19 156.678 128.414 156.461C128.537 157.405 129.025 158.377 129.847 159.15C131.481 160.69 133.82 160.863 135.069 159.537C135.876 158.681 135.351 156.768 134.877 155.519C164.41 149.767 187.187 125.12 190.112 94.6719C190.323 97.1586 190.433 99.6746 190.433 102.216C190.433 150.936 150.936 190.433 102.216 190.433C81.3383 190.433 62.1556 183.179 47.0479 171.056C48.5505 171.917 50.3118 171.841 51.3389 170.751C52.5854 169.428 50.6518 165.581 50.6416 165.561C50.6042 165.544 46.663 163.853 45.4189 165.173C44.2566 166.407 44.4458 168.503 45.793 170.029C43.3116 167.962 40.945 165.763 38.7051 163.439C38.7094 163.433 38.7145 163.427 38.7188 163.421C40.9301 160.12 38.7313 154.767 38.7119 154.72C38.679 154.72 35.1257 154.719 32.5205 156.301C20.9128 141.364 14 122.597 14 102.216C14.0001 90.0428 16.4657 78.4456 20.9248 67.8965C22.6421 68.3424 25.3096 65.1875 25.3096 65.1875C25.3097 65.1447 25.3162 62.1278 24.3154 60.7861C39.1511 32.9488 68.4701 14.0001 102.216 14Z" fill="white"/>
</svg>
