<svg width="1000" height="1000" viewBox="0 0 1000 1000" fill="none" xmlns="http://www.w3.org/2000/svg">
<path fill-rule="evenodd" clip-rule="evenodd" d="M670.013 491.235C671.702 486.308 673.392 481.38 675.081 476.454C677.956 466.638 679.213 456.509 681.628 445.837C684.371 433.713 682.705 417.583 680.994 406.351C677.19 381.065 668.286 362.828 655.441 346.172C652.778 342.658 650.246 338.597 646.994 335.614C639.084 328.36 630.442 319.058 619.329 315.344C609.87 312.231 595.593 315.963 585.328 313.654C576.802 311.737 568.581 303.382 566.744 295.073C565.32 288.635 577.194 286.601 581.315 284.726C585.897 282.847 589.9 281.113 592.719 277.336C594.901 274.401 597.084 271.423 599.266 268.467C603.118 265.484 609.333 264.527 612.993 261.077C612.782 260.584 612.571 260.092 612.36 259.599C606.539 257.688 592.223 241.216 590.185 235.105C589.435 232.856 586.701 223.238 589.129 221.38C591.182 220.873 593.98 223.546 595.465 224.336C602.184 227.649 609.245 229.664 614.471 234.26C616.722 236.222 619.217 239.893 622.285 240.806C620.385 237.569 618.484 234.33 616.583 231.093C612.855 222.693 611.353 213.185 611.304 201.109C611.444 201.109 611.585 201.109 611.726 201.109C611.937 201.039 612.148 200.968 612.36 200.898C615.472 205.019 621.212 207.591 625.453 210.611C628.972 214.693 632.493 218.776 636.012 222.858C641.694 230.789 641.55 241.705 646.149 250.73C649.402 257.115 654.901 261.441 660.509 265.511C662.968 267.296 665.064 270.825 668.323 271.635C667.799 268.882 665.709 267.03 664.311 264.878C664.381 264.596 664.452 264.315 664.522 264.033C664.592 264.033 664.663 264.033 664.733 264.033C667.38 264.943 669.409 267.327 671.491 268.89C683.029 277.547 693.22 288.502 698.734 303.097C699.015 303.026 699.297 302.956 699.578 302.886C699.015 300.844 698.452 298.803 697.889 296.762C698.311 296.762 698.734 296.762 699.156 296.762C701.479 299.999 703.824 303.238 706.125 306.475C710.339 314.016 713.464 323.144 715.84 332.447C716.514 335.086 717.439 345.494 719.219 346.172C719.693 345.049 721.442 340.166 722.598 339.626C724.212 346.231 724.886 352.84 726.188 359.897C727.314 366.004 724.799 372.889 725.554 377.634C725.695 377.704 725.836 377.775 725.977 377.845C726.188 377.704 726.399 377.564 726.61 377.423C727.736 374.488 728.863 371.51 729.989 368.554C730.06 368.554 730.13 368.554 730.2 368.554C730.271 368.695 730.341 368.836 730.411 368.977C730.411 372.777 730.411 376.599 730.411 380.379C729.567 386.643 728.722 392.908 727.877 399.172C719.981 429.177 711.235 448.35 695.355 469.908C691.666 474.917 676.609 490.531 670.013 491.235ZM638.969 260.021C636.064 261.209 634.358 261.971 633.055 264.666C633.126 264.948 633.196 265.23 633.267 265.511C638.252 266.888 642.394 265.816 644.671 261.71C644.53 261.288 644.389 260.866 644.248 260.444C642.489 260.303 640.728 260.162 638.969 260.021ZM627.353 260.654C626.374 261.605 624.699 262.656 625.242 264.455C625.312 264.737 625.382 265.018 625.453 265.3C626.875 265.459 627.836 265.406 629.043 265.089C629.747 264.103 630.451 263.118 631.155 262.133C631.084 261.781 631.014 261.429 630.944 261.077C629.997 260.772 628.826 260.632 627.353 260.654ZM651.006 273.535C647.533 274.836 644.092 274.375 641.08 275.858C637.768 277.516 635.53 280.968 632.422 282.615C632.422 282.896 632.422 283.178 632.422 283.459C632.704 283.459 632.985 283.459 633.267 283.459C636.469 281.92 641.633 278.639 645.304 278.814C644.76 280.388 643.386 280.132 643.826 281.559C647.416 281.277 651.027 280.996 654.596 280.714C654.596 280.925 654.596 281.137 654.596 281.348C651.288 282.544 647.979 283.741 644.671 284.937C644.671 285.008 644.671 285.078 644.671 285.148C644.671 285.36 644.671 285.571 644.671 285.782C645.807 286.025 646.812 286.158 647.205 287.26C647.134 287.33 647.064 287.401 646.994 287.471C644.389 287.409 634.921 287.206 633.689 288.105C633.83 288.316 633.971 288.527 634.111 288.738C649.489 293.17 659.574 289.225 667.267 279.025C667.222 278.072 667.118 277.887 666.845 277.336C661.837 275.894 657.7 274.018 651.006 273.535ZM613.627 275.435C612.078 275.646 610.529 275.858 608.98 276.069C605.726 277.29 601.291 280.859 600.533 284.515C600.674 284.656 600.815 284.797 600.955 284.937C604.172 284.298 606.086 281.494 609.614 280.925C609.544 281.207 609.473 281.488 609.403 281.77C607.589 282.524 608.068 283.558 606.869 284.726C604.968 285.43 603.067 286.134 601.167 286.838C601.167 286.908 601.167 286.978 601.167 287.049C601.307 287.049 601.448 287.049 601.589 287.049C607.877 290.208 619.517 280.471 617.428 275.858C616.161 275.717 614.894 275.576 613.627 275.435ZM671.28 279.236C667.194 288.089 660.49 291.633 650.795 294.862C650.795 295.213 650.795 295.565 650.795 295.917C652.696 297.466 654.596 299.014 656.497 300.563C664.808 309.944 654.963 314.869 646.782 317.244C642.215 318.57 637.326 316.909 632.844 317.666C632.844 317.737 632.844 317.807 632.844 317.877C634.188 320.051 637.568 321.214 639.602 322.734C644.248 327.027 648.937 331.321 653.54 335.614C667.785 351.82 679.091 372.488 684.796 396.849C688.687 413.467 689.766 438.683 685.64 456.183C684.742 460.092 678.566 480.103 678.882 480.888C678.953 480.888 679.023 480.888 679.094 480.888C684.756 474.519 687.831 466.241 693.032 459.35C710.227 436.677 725.489 389.208 716.051 349.973C711.971 333.012 704.529 319.941 696.622 307.109C692.576 300.472 678.168 281.652 671.28 279.236ZM672.547 286.627C677.37 287.649 686.482 301.549 689.864 305.419C708.172 326.372 721.424 369.902 710.349 407.618C706.358 421.208 702.514 432.6 696.622 443.725C695.6 445.712 691.887 454.862 690.286 454.072C691.702 449.369 690.898 444.21 691.976 438.658C692.991 433.428 693.093 425.657 692.187 420.076C691.906 415.924 691.624 411.77 691.342 407.618C687.89 392.387 684.894 378.593 678.671 366.443C675.474 360.253 673.243 353.444 668.957 348.284C663.819 342.097 659.183 335.531 653.963 329.491C651.962 327.242 646.909 324.88 646.149 321.678C653.323 320.941 659.384 316.239 664.1 312.81C664.626 304.867 662.797 301.445 659.242 297.184C659.383 296.903 659.524 296.621 659.665 296.34C664.502 294.848 670.051 290.568 672.547 286.627ZM671.069 294.439C667.834 303.191 671.564 309.624 675.293 315.132C675.644 315.132 675.996 315.132 676.348 315.132C682.203 309.33 675.49 297.988 672.547 294.65C672.054 294.58 671.562 294.51 671.069 294.439ZM631.155 296.129C628.183 297.312 624.581 297.52 621.863 298.451C621.722 298.662 621.581 298.874 621.44 299.085C621.581 299.296 621.722 299.507 621.863 299.718C625.201 299.644 632.36 298.768 634.534 300.351C634.393 300.563 634.252 300.774 634.111 300.985C632.797 301.06 632.345 301.363 631.788 302.041C631.929 302.252 632.07 302.463 632.211 302.674C635.378 303.8 638.568 304.927 641.714 306.053C641.644 306.193 641.573 306.334 641.503 306.475C641.362 306.475 641.221 306.475 641.08 306.475C637.561 306.264 634.041 306.053 630.521 305.842C630.521 306.053 630.521 306.264 630.521 306.475C631.366 307.108 632.211 307.742 633.055 308.375C632.844 308.586 632.633 308.798 632.422 309.009C629.106 307.575 624.492 304.862 620.807 304.363C620.666 304.504 620.525 304.645 620.384 304.786C625.012 312.409 637.336 315.276 648.05 311.965C649.94 311.437 654.525 310.681 654.807 309.009C655.063 307.492 652.148 305.945 651.429 304.997C647.147 299.907 640.581 295.985 631.155 296.129ZM685.007 305.419C680.459 310.634 681.055 329.227 687.119 330.969C686.791 325.525 684.843 323.656 686.696 317.666C686.767 317.666 686.837 317.666 686.907 317.666C686.978 317.737 687.048 317.807 687.119 317.877C687.33 320.96 688.865 321.802 689.442 323.79C689.371 325.971 689.301 328.154 689.231 330.336C689.73 330.277 689.494 330.382 690.075 330.124C692.899 321.744 691.744 315.504 687.964 309.009C687.17 307.575 686.809 305.875 685.007 305.419ZM665.155 313.654C665.085 313.725 665.015 313.795 664.944 313.866C676.513 326.302 687.159 339.791 692.821 357.997C694.659 363.906 695.001 369.377 696.622 375.734C697.986 381.082 700.567 397.228 698.945 402.761C698.734 402.621 698.523 402.48 698.311 402.339C697.499 400.051 694.379 396.304 691.342 397.06C690.402 403.632 693.118 405.457 696.2 408.463C697.804 408.392 697.782 407.987 698.945 407.618C700.421 417.732 696.796 427.943 695.566 436.335C695.707 436.475 695.848 436.616 695.989 436.757C696.059 436.757 696.129 436.757 696.2 436.757C699.811 432.525 699.561 424.442 701.691 418.809C702.676 418.879 703.662 418.95 704.647 419.02C706.247 416.903 709.002 412.416 708.026 408.674C707.674 408.674 707.322 408.674 706.97 408.674C705.963 410.568 703.797 413.171 702.324 414.586C702.746 409.659 703.169 404.731 703.591 399.805C706.264 399.359 706.583 394.778 708.448 393.259C708.519 393.259 708.589 393.259 708.66 393.259C708.73 393.4 708.8 393.541 708.871 393.682C708.167 396.075 707.463 398.468 706.759 400.861C706.9 401.002 707.04 401.142 707.181 401.283C707.463 401.283 707.744 401.283 708.026 401.283C711.254 397.294 712.915 392.228 711.405 385.447C711.264 385.376 711.123 385.306 710.982 385.236C710.701 385.306 710.419 385.376 710.138 385.447C705.227 388.315 706.712 391.444 703.802 394.315C703.802 394.174 703.802 394.034 703.802 393.893C702.899 391.828 703.845 389.337 703.38 386.503C702.535 380.421 701.69 374.255 700.846 368.132C696.33 350.017 689.424 336.146 678.46 324.634C675.123 321.131 670.537 314.731 665.155 313.654ZM662.199 319.356C661.03 320.196 659.573 320.591 658.609 321.467C658.609 321.537 658.609 321.608 658.609 321.678C661.105 325.291 664.856 329.271 669.168 324.634C668.696 320.138 665.473 320.037 662.199 319.356ZM583.216 322.945C607.06 322.55 636.518 329.251 636.012 351.873C633.429 353.966 628.801 357.727 627.565 360.953C623.837 370.807 630.418 378.128 638.335 379.112C642.093 379.61 645.361 377.376 647.627 376.156C647.768 376.297 647.909 376.437 648.05 376.578C640.539 412.732 607.745 426.956 576.669 439.502C569.601 442.356 562.146 442.841 554.284 444.781C544.347 447.233 526.957 449.889 514.37 447.948C510.689 447.375 507.279 448.246 504.655 447.315C504.655 447.174 504.655 447.033 504.655 446.892C504.867 446.752 505.078 446.611 505.289 446.47C517.322 441.268 528.689 436.192 539.501 430C539.43 429.859 539.36 429.719 539.29 429.578C513.552 435.982 475.748 432.8 454.816 425.144C450.202 423.602 442.831 423.006 439.822 419.653C440.033 419.372 440.244 419.091 440.455 418.809C452.197 416.196 473.552 408.574 479.313 400.438C479.035 399.63 479.335 399.999 478.68 399.594C472.697 398.116 466.712 396.638 460.729 395.16C442.491 388.943 427.19 380.355 417.014 366.021C415.377 363.869 406.006 348.097 409.2 344.905C419.624 349.734 432.53 352.573 444.89 355.041C461.422 358.341 480.207 354.99 492.196 350.395C497.213 348.472 501.727 347.891 506.556 345.961C519.617 340.741 533.04 334.661 546.681 330.124C554.23 327.614 562.19 326.406 570.123 324.212C574.487 323.79 578.852 323.367 583.216 322.945ZM698.311 325.69C694.349 331.227 692.458 338.964 695.566 346.594C696.077 347.678 696.908 351.218 698.311 351.028C699.217 349.535 697.225 346.671 697.044 345.116C696.966 343.414 698.209 343.172 698.523 341.949C698.993 340.118 698.293 338.515 699.156 337.303C699.297 337.374 699.438 337.444 699.578 337.515C699.86 339.485 700.142 341.456 700.423 343.427C700.846 343.427 701.268 343.427 701.691 343.427C701.409 346.031 701.127 348.636 700.846 351.24C701.127 351.24 701.409 351.24 701.691 351.24C702.605 349.149 703.521 347.016 704.436 344.905C705.676 338.618 701.655 326.915 698.311 325.69ZM670.013 329.28C668.163 330.187 665.268 329.852 663.255 330.969C663.855 336.407 673.098 345.641 680.572 341.949C680.572 341.667 680.572 341.386 680.572 341.104C678.519 339.369 675.249 338.108 673.392 336.037C673.462 335.896 673.532 335.755 673.603 335.614C675.081 335.614 676.56 335.614 678.038 335.614C679.305 336.811 680.572 338.007 681.839 339.204C681.839 339.063 681.839 338.922 681.839 338.782C681.91 338.711 681.98 338.641 682.05 338.571C681.234 333.649 675.075 329.686 670.013 329.28ZM585.75 331.602C581.175 332.025 576.598 332.447 572.023 332.869C563.035 334.388 554.375 335.273 546.47 337.937C530.262 343.398 514.72 350.971 498.953 357.574C491.823 360.561 483.458 361.405 475.512 363.064C463.157 365.645 442.172 363.824 432.219 360.53C429.978 359.787 420.09 357.543 419.126 358.419C419.126 358.489 419.126 358.56 419.126 358.63C422.575 361.727 426.025 364.824 429.474 367.921C437.631 374.003 446.057 379.79 455.027 385.024C463.523 389.982 473.648 392.746 484.171 395.582C488.206 396.669 493.809 394.844 496.631 396.427C496.631 396.497 496.631 396.567 496.631 396.638C494.725 398.486 492.271 399.469 490.084 401.072C478.201 409.782 465.955 415.495 449.114 419.653C449.114 419.935 449.114 420.217 449.114 420.498C449.255 420.639 449.396 420.78 449.536 420.921C454.675 421.976 459.815 423.032 464.953 424.088C471.358 424.932 477.765 425.777 484.171 426.622C488.394 426.833 492.639 427.044 496.842 427.255C514.33 430.127 539.149 426.443 553.65 423.665C553.721 423.877 553.791 424.088 553.862 424.299C548.448 434.275 528.005 438.956 517.326 444.57C517.326 444.781 517.326 444.992 517.326 445.203C517.467 445.274 517.608 445.344 517.749 445.414C529.941 443.411 542.327 444.054 553.228 440.558C560.769 438.139 569.337 436.717 576.669 433.59C605.462 421.309 621.559 411.553 638.969 387.769C638.898 387.488 638.828 387.206 638.758 386.925C634.502 386.449 630.584 386.265 627.353 385.236C624.702 384.391 623.374 383.478 621.44 382.279C613.991 377.66 615.267 367.558 619.751 360.953C621.228 358.777 624.281 357.143 625.453 354.618C626.836 351.639 625.648 347.798 624.608 345.327C620.98 336.337 610.023 334.599 600.322 332.025C595.507 331.884 590.607 331.743 585.75 331.602ZM581.738 336.459C601.077 336.175 617.722 336.395 621.651 351.662C619.826 355.122 616.409 357.289 614.471 360.53C610.212 367.655 611.027 380.331 616.794 385.024C619.256 387.027 623.299 389.082 626.509 390.092C628.392 390.685 629.75 390.239 630.944 391.359C630.733 391.57 630.521 391.781 630.31 391.993C627.549 397.692 621.408 401.79 616.794 405.718C603.831 416.966 588.26 424.614 569.911 430.634C566.936 431.61 548.398 437.965 546.259 436.546C547.313 435.158 549.086 434.855 550.482 433.801C553.984 431.159 563.656 422.454 563.153 417.331C563.083 417.26 563.013 417.19 562.942 417.12C558.367 418.105 553.791 419.091 549.215 420.076C542.951 420.85 536.684 421.624 530.42 422.398C527.907 422.469 525.351 422.539 522.817 422.61C505.773 425.332 482.723 421.873 467.698 419.865C467.698 419.583 467.698 419.302 467.698 419.02C474.993 414.463 482.946 411.83 489.873 407.195C497.832 401.869 504.528 394.809 512.469 389.67C512.399 389.248 512.329 388.825 512.258 388.403C512.188 388.403 512.117 388.403 512.047 388.403C507.313 389.08 502.534 390.802 497.053 391.57C481.747 393.714 458.718 382.649 450.17 376.367C447.663 374.549 435.485 367.942 436.02 365.809C436.091 365.809 436.161 365.809 436.232 365.809C446.087 369.279 464.383 369.603 476.146 367.498C494.22 364.283 508.599 358.777 523.029 352.296C530.768 348.819 538.942 346.541 546.47 342.794C553.139 339.528 562.001 339.398 569.7 337.726C573.712 337.304 577.746 336.881 581.738 336.459ZM595.465 360.742C596.239 360.953 597.013 361.164 597.788 361.375C597.266 358.77 595.752 355.644 596.521 352.718C596.591 352.718 596.661 352.718 596.732 352.718C596.873 352.718 597.013 352.718 597.154 352.718C598.492 355.674 599.829 358.651 601.167 361.586C601.237 361.445 601.307 361.305 601.378 361.164C601.66 360.46 601.941 359.756 602.223 359.052C602.363 359.123 602.504 359.193 602.645 359.264C603.622 362.677 603.671 366.591 604.123 370.243C604.264 370.314 604.405 370.384 604.546 370.455C604.827 370.314 605.109 370.173 605.39 370.032C606.175 366.948 607.605 362.886 606.657 358.841C605.082 351.791 598.835 343.722 592.931 340.682C592.649 340.752 592.367 340.823 592.086 340.893C586.676 354.469 590.864 364.062 599.9 371.299C600.111 371.088 600.322 370.877 600.533 370.666C599.019 367.444 595.714 365.003 595.465 360.742ZM557.451 344.272C555.833 344.483 554.213 344.694 552.594 344.905C552.594 345.538 552.594 346.172 552.594 346.806C557.849 356.645 562.464 365.691 573.502 369.61C575.332 370.408 582.268 373.029 584.694 370.666C584.765 370.455 584.835 370.243 584.906 370.032C584.765 369.892 584.624 369.751 584.483 369.61C581.601 369.55 571.787 365.08 571.178 363.276C572.446 363.276 573.713 363.276 574.98 363.276C574.98 363.205 574.98 363.135 574.98 363.064C571.622 359.968 568.222 356.87 564.843 353.773C564.913 353.633 564.984 353.492 565.054 353.351C568.855 355.251 572.678 357.152 576.458 359.052C576.599 358.912 576.74 358.771 576.88 358.63C576.036 357.293 575.191 355.955 574.346 354.618C574.487 354.548 574.628 354.477 574.769 354.407C574.98 354.407 575.191 354.407 575.402 354.407C576.844 356.377 585.074 364.471 587.017 365.387C584.865 354.055 571.718 344.14 557.451 344.272ZM675.081 347.228C674.631 347.605 674.568 347.513 674.236 348.072C672.822 352.831 680.703 361.02 683.74 362.853C685.087 363.666 688.544 365.379 690.075 363.909C688.799 361.909 685.757 361.677 684.162 359.897C684.444 359.545 684.725 359.193 685.007 358.841C683.881 357.434 682.754 356.026 681.628 354.618C681.628 354.548 681.628 354.477 681.628 354.407C683.621 354.66 684.62 355.768 685.852 356.73C686.972 356.46 686.891 356.14 687.964 356.307C688.747 358.026 690.181 360.285 691.765 361.164C691.906 361.094 692.046 361.023 692.187 360.953C690.354 353.102 685.038 347.055 675.081 347.228ZM707.393 352.507C703.12 356.761 700.512 363.473 702.958 371.511C703.511 373.273 703.495 374.651 704.647 375.734C704.788 375.663 704.929 375.593 705.069 375.522C704.567 371.084 704.626 366.569 706.97 363.698C707.111 363.909 707.252 364.12 707.393 364.331C707.652 364.996 708.862 371.394 708.66 371.511C708.373 373.148 707.144 374.111 707.603 376.156C708.026 376.015 708.448 375.874 708.871 375.734C709.624 373.543 711.238 372.119 711.827 369.61C712.937 364.887 710.531 354.293 708.026 352.718C707.815 352.647 707.603 352.577 707.393 352.507ZM535.911 355.252C532.606 356.496 529.011 355.958 526.408 357.574C526.408 357.645 526.408 357.715 526.408 357.785C527.735 365.232 548.761 381.818 559.352 374.467C559.352 374.396 559.352 374.326 559.352 374.255C556.73 372.773 547.336 372.847 546.259 370.455C546.4 370.455 546.54 370.455 546.681 370.455C547.526 370.173 548.371 369.892 549.215 369.61C549.004 369.329 548.793 369.047 548.582 368.766C545.336 367.619 540.978 365.346 538.656 363.064C538.797 362.994 538.938 362.924 539.078 362.853C543.278 362.963 545.617 365.311 549.638 365.598C549.638 365.387 549.638 365.176 549.638 364.965C549.075 364.12 548.511 363.275 547.948 362.431C548.23 362.431 548.511 362.431 548.793 362.431C552.366 364.286 556.126 368.747 560.197 369.399C560.197 369.188 560.197 368.977 560.197 368.766C555.971 361.36 547.706 355.315 535.911 355.252ZM733.579 356.096C749.05 358.191 764.075 371.922 757.232 391.148C752.747 403.866 745.683 414.583 742.449 427.889C740.884 434.329 740.745 443.006 742.238 449.637C742.782 452.058 745.273 455.935 744.772 457.873C744.631 457.732 744.49 457.591 744.35 457.45C741.446 456.134 739.215 451.525 737.38 449.004C723.307 429.668 733.071 404.781 737.169 381.435C738.41 374.369 736.839 366.194 735.058 360.953C734.465 359.209 733.116 358.7 732.946 356.307C733.157 356.237 733.368 356.167 733.579 356.096ZM658.609 363.698C658.75 363.698 658.89 363.698 659.031 363.698C662.92 367.817 665.049 377.247 667.267 383.124C675.788 405.696 679.056 442.718 671.28 468.853C669.119 476.114 667.093 483.717 664.1 490.39C662.782 493.327 659.925 496.899 659.453 500.314C659.524 500.385 659.594 500.455 659.665 500.526C659.735 500.526 659.806 500.526 659.876 500.526C663.709 499.923 669.06 496.15 672.758 496.725C672.758 496.866 672.758 497.006 672.758 497.147C673.647 499.765 672.684 507.451 673.392 511.295C676.224 524.464 679.174 538 681.839 551.836C684.245 564.326 682.752 577.862 686.907 588.577C694.696 608.358 702.011 616.988 715.206 630.596C715.057 634.144 714.099 641.513 712.461 644.321C701.128 643.899 689.793 643.477 678.46 643.055C677.131 641.707 669.693 619.571 670.013 617.927C671.743 613.874 673.778 609.375 674.87 604.624C676.088 599.327 676.195 591.666 675.293 586.043C674.055 578.331 674.211 572.899 672.125 566.617C668.202 554.894 662.072 544.413 657.342 533.466C657.06 533.536 656.779 533.606 656.497 533.677C655.512 535.788 654.526 537.9 653.54 540.011C653.329 540.011 653.118 540.011 652.907 540.011C652.836 539.871 652.766 539.73 652.696 539.589C650.582 526.069 649.867 513.266 644.037 503.904C640.693 498.533 635.62 495.597 630.099 500.948C629.143 500.766 629.516 500.972 629.043 500.314C627.808 496.905 628.61 492.202 626.931 489.334C626.79 489.405 626.65 489.475 626.509 489.545C620.883 510.308 588.407 527.068 566.744 533.043C559.634 534.24 552.523 535.436 545.414 536.633C540.276 537.126 535.136 537.618 529.998 538.111C529.012 539.378 528.027 540.645 527.041 541.912C525.396 543.926 515.98 555.996 514.581 556.481C514.581 556.341 514.581 556.2 514.581 556.059C514.088 554.018 513.596 551.977 513.103 549.936C513.032 549.936 512.962 549.936 512.892 549.936C505.361 552.307 502.959 563.894 499.798 570.84C498.79 573.057 498.876 576.209 497.264 577.808C497.264 577.667 497.264 577.526 497.264 577.386C496.591 576.406 496.659 574.398 496.419 572.951C496.138 572.951 495.856 572.951 495.575 572.951C489.352 584.908 481.35 595.661 477.835 609.903C474.708 622.619 485.124 628.191 482.481 642.421C479.013 643.364 459.566 644.038 457.139 642.421C455.027 636.369 452.915 630.314 450.804 624.262C451.062 621.843 452.859 619.026 453.76 617.083C455.842 612.594 456.817 608.608 459.04 604.413C462.139 598.564 466.575 592.659 468.332 585.621C469.383 581.493 468.18 577.353 468.121 573.374C469.803 573.95 470.217 575.93 471.5 576.963C471.781 576.893 472.063 576.823 472.344 576.752C473.44 567.926 474.023 555.045 477.413 547.613C479.055 544.011 482.96 540.838 485.438 537.9C490.627 531.745 495.006 524.083 497.898 515.729C501.99 503.932 504.316 492.68 510.357 483.211C511.915 480.77 513.204 476.001 515.848 474.765C515.848 474.906 515.848 475.046 515.848 475.187C515.708 476.595 515.567 478.003 515.426 479.41C518.101 476.736 520.776 474.061 523.451 471.386C525.914 469.627 528.379 467.867 530.842 466.107C530.772 465.826 530.702 465.544 530.631 465.263C528.664 465.373 527.199 465.988 525.351 465.685C525.351 465.615 525.351 465.544 525.351 465.474C525.703 465.052 526.056 464.629 526.408 464.207C530.876 463.277 534.82 459.686 538.867 458.084C544.006 456.324 549.146 454.564 554.284 452.805C557.439 451.748 562.728 451.628 564.632 449.426C564.421 449.286 564.209 449.145 563.998 449.004C562.661 448.582 561.323 448.159 559.986 447.737C560.127 447.526 560.267 447.315 560.408 447.104C573.852 443.655 587.3 440.206 600.744 436.757C600.674 436.475 600.604 436.194 600.533 435.913C598.717 435.746 597.686 435.093 598.421 433.801C602.637 433.777 605.782 431.831 608.769 430.634C623.939 424.554 632.403 414.834 640.447 401.706C640.658 401.776 640.869 401.846 641.08 401.917C641.151 402.057 641.221 402.198 641.292 402.339C641.066 404.316 640.347 406.698 640.869 408.674C640.94 408.674 641.01 408.674 641.08 408.674C641.362 408.533 641.644 408.392 641.925 408.251C643.826 405.014 645.727 401.775 647.627 398.538C651.285 389.541 653.361 381.295 653.329 368.554C653.611 368.554 653.892 368.554 654.174 368.554C655.019 370.947 655.864 373.341 656.708 375.734C659.419 373.303 657.835 367.062 658.609 363.698ZM744.561 366.443C743.979 368.013 747.586 379.665 746.462 385.658C744.174 398.082 738.143 407.181 735.058 419.02C733.958 423.401 734.45 434.073 736.747 436.757C736.958 436.687 737.17 436.616 737.38 436.546C737.323 432.064 736.626 427.142 737.592 423.032C740.398 411.085 746.694 403.177 749.207 391.148C750.628 384.492 748.894 368.416 744.561 366.443ZM512.469 367.287C510.346 368.094 507.247 367.626 505.5 368.554C505.5 368.625 505.5 368.695 505.5 368.766C507.993 376.941 516.039 382.204 525.351 383.757C528.246 384.24 533.797 384.886 535.911 383.335C535.84 383.194 535.77 383.054 535.7 382.913C532.662 382.696 524.894 381.377 523.029 379.957C524.165 379.48 525.036 379.523 525.774 378.69C525.563 378.408 525.351 378.127 525.14 377.845C522.735 377.298 519.764 375.705 518.382 374.044C518.453 373.904 518.523 373.763 518.594 373.622C521.892 374.04 528.773 378.401 527.463 373.833C527.815 373.833 528.167 373.833 528.519 373.833C531.687 375.874 534.876 377.916 538.023 379.957C538.093 379.886 538.163 379.816 538.234 379.746C538.163 379.323 538.093 378.901 538.023 378.479C534.268 370.366 524.128 367.179 512.469 367.287ZM685.852 368.766C681.36 377.16 688.938 385.842 693.243 388.825C693.525 388.755 693.806 388.684 694.088 388.614C694.088 388.332 694.088 388.051 694.088 387.769C693.315 386.496 691.866 385.748 691.131 384.602C690.907 384.251 690.223 379.236 690.075 378.267C690.146 378.197 690.216 378.127 690.286 378.056C690.498 378.127 690.709 378.197 690.92 378.267C693.539 382.019 694.035 381.294 695.777 386.713C696.183 386.42 695.904 386.692 696.2 386.291C696.857 385.593 696.605 383.873 696.411 382.913C694.962 375.763 692.66 371.048 685.852 368.766ZM482.904 370.032C481.496 370.243 480.087 370.455 478.68 370.666C478.609 370.807 478.539 370.947 478.469 371.088C479.609 378.433 490.189 383.805 497.475 385.658C499.43 386.155 505 387.498 506.979 386.08C506.767 385.939 506.556 385.799 506.345 385.658C503.485 384.308 498.742 384.586 496.842 382.279C497.053 381.998 497.264 381.716 497.475 381.435C495.012 379.816 492.547 378.197 490.084 376.578C490.154 376.437 490.225 376.297 490.295 376.156C497.374 377.334 502.227 383.043 508.246 384.813C508.386 384.743 508.527 384.672 508.668 384.602C507.552 375.337 494.13 370.003 482.904 370.032ZM466.642 373.411C464.877 374.213 462.963 373.731 461.785 374.889C462.801 381.142 471.91 385.203 479.102 382.279C479.017 376.395 472.855 373.384 466.642 373.411ZM579.204 374.678C576.74 374.748 574.276 374.819 571.812 374.889C568.504 375.382 565.195 375.874 561.886 376.367C551.726 378.887 541.436 382.254 533.165 387.136C522.239 393.585 511.789 400.385 501.277 407.407C495.562 411.343 488.787 415.581 481.214 417.753C481.284 418.105 481.355 418.457 481.425 418.809C489.645 418.746 503.119 410.488 508.879 406.984C525.326 396.981 541.909 386.782 561.886 381.012C567.025 380.098 572.165 379.182 577.303 378.267C587.104 376.053 602.163 380.329 608.558 375.311C608.417 375.1 608.277 374.889 608.136 374.678C603.326 374.726 599.88 376.521 594.409 375.522C589.955 374.795 584.545 374.677 579.204 374.678ZM582.16 379.957C579.767 381.153 577.373 382.35 574.98 383.546C567.768 387.652 563.087 395.247 561.253 404.873C560.674 407.91 560.439 412.348 561.464 414.586C561.746 414.515 562.027 414.445 562.309 414.375C572.296 412.604 592.378 397.243 588.496 382.913C588.425 382.913 588.355 382.913 588.284 382.913C587.933 383.124 587.58 383.335 587.229 383.546C586.263 387.336 583.814 393.724 581.104 396.004C580.823 395.864 580.541 395.723 580.26 395.582C580.619 394.607 580.814 393.144 580.471 391.993C580.189 392.274 579.908 392.555 579.626 392.837C575.753 394.78 574.469 400.837 570.123 402.339C570.123 402.269 570.123 402.198 570.123 402.128C572.164 398.257 574.206 394.385 576.247 390.514C576.177 390.444 576.106 390.374 576.036 390.303C575.754 390.303 575.473 390.303 575.191 390.303C574.206 391.077 573.22 391.852 572.235 392.626C571.953 392.555 571.671 392.485 571.39 392.415C571.39 392.344 571.39 392.274 571.39 392.204C575.331 388.213 579.274 384.179 583.216 380.168C583.075 380.097 582.934 380.027 582.794 379.957C582.583 379.957 582.371 379.957 582.16 379.957ZM600.955 379.957C596.469 386.33 589.969 393.033 593.142 404.662C593.868 407.324 594.478 409.707 596.309 411.207C601.722 409.303 614.743 387.408 605.602 380.59C605.531 380.59 605.461 380.59 605.39 380.59C605.39 380.731 605.39 380.872 605.39 381.012C605.179 384.461 604.968 387.91 604.757 391.359C604.227 391.281 604.317 391.312 603.701 390.937C603.49 390.514 603.278 390.092 603.067 389.67C602.856 389.81 602.645 389.951 602.434 390.092C601.378 393.048 600.322 396.026 599.266 398.961C599.196 398.961 599.125 398.961 599.055 398.961C598.984 398.89 598.914 398.82 598.844 398.749C598.95 395.887 600.265 392.131 599.266 389.881C599.055 389.881 598.844 389.881 598.633 389.881C598.241 390.808 598.132 390.892 597.365 391.359C597.295 391.359 597.225 391.359 597.154 391.359C597.154 391.077 597.154 390.796 597.154 390.514C598.632 387.157 600.111 383.757 601.589 380.379C601.378 380.238 601.167 380.097 600.955 379.957ZM554.284 387.981C552.454 389.036 550.623 390.092 548.793 391.148C542.498 395.852 535.867 404.866 539.078 416.275C539.219 416.346 539.36 416.416 539.501 416.486C548.47 415.885 561.604 401.337 558.93 389.881C558.578 389.951 558.226 390.022 557.874 390.092C557.534 393.09 555.643 399.487 553.228 400.438C553.228 400.157 553.228 399.876 553.228 399.594C553.544 398.885 553.54 399.001 553.439 398.116C550.579 399.042 548.581 405.614 546.048 405.295C546.048 405.225 546.048 405.154 546.048 405.084C546.751 401.908 549.166 400.565 549.638 397.06C548.934 397.06 548.23 397.06 547.526 397.06C547.526 396.99 547.526 396.919 547.526 396.849C548.261 394.068 552.827 390.135 554.917 388.403C554.847 388.262 554.777 388.121 554.706 387.981C554.565 387.981 554.425 387.981 554.284 387.981ZM516.693 390.092C513.719 391.872 506.722 394.862 507.612 399.383C511.797 399.134 517.733 394.153 518.594 390.514C518.453 390.374 518.312 390.233 518.171 390.092C517.678 390.092 517.186 390.092 516.693 390.092ZM532.321 397.271C525.014 403.36 520.106 403.249 517.326 414.586C516.876 416.425 516.529 419.734 517.115 421.343C526.441 420.989 536.61 408.956 536.333 398.961C533.922 399.765 532.842 405.661 531.265 407.407C531.124 407.336 530.983 407.266 530.842 407.195C530.631 406.773 530.42 406.351 530.209 405.928C528.172 407.578 526.995 410.256 524.718 411.63C524.577 411.489 524.436 411.348 524.296 411.207C525.492 409.237 526.689 407.266 527.886 405.295C527.534 404.873 527.182 404.45 526.83 404.028C528.231 401.456 532.137 400.355 532.954 397.271C532.743 397.271 532.532 397.271 532.321 397.271ZM659.876 402.761C650.766 422.533 635.497 435.664 615.316 444.359C599.107 451.477 580.02 455.418 569.7 468.219C565.834 473.015 562.647 479.271 560.197 485.322C559.634 487.715 559.071 490.109 558.508 492.502C556.325 499.072 552.119 507.484 545.837 510.027C533.319 515.214 518.437 509.079 521.973 493.346C523.38 487.082 526.685 484.535 529.998 480.466C529.857 480.184 529.716 479.903 529.575 479.621C508.579 488.801 517.821 527.729 547.526 515.517C564.708 508.454 564.088 483.677 576.036 471.386C586.141 460.991 601.669 456.939 615.738 450.482C625.838 445.87 633.964 439.18 642.348 432.956C648.183 428.714 655.164 418.374 658.186 411.419C658.894 409.791 661.912 403.815 659.876 402.761ZM511.624 408.463C507.432 410.274 497.578 414.057 500.854 421.132C508.637 421.335 515.514 417.715 515.848 410.363C515.708 410.222 515.567 410.081 515.426 409.94C515.355 409.94 515.285 409.94 515.215 409.94C513.893 412.675 510.035 414.778 507.401 416.064C507.19 415.994 506.978 415.923 506.767 415.853C506.908 415.501 507.049 415.149 507.19 414.797C508.697 414.047 508.421 412.998 509.302 411.63C510.319 410.048 512.804 410.52 513.525 408.463C512.892 408.463 512.258 408.463 511.624 408.463ZM579.837 412.474C577.937 413.249 576.036 414.023 574.135 414.797C571.741 416.654 567.055 423.164 569.067 427.044C578.314 427.187 582.733 421.004 584.061 413.319C583.92 413.249 583.779 413.178 583.639 413.108C582.96 412.317 581.364 412.389 579.837 412.474ZM664.944 437.813C662.564 441.731 662.941 455.493 661.566 461.04C660.228 466.318 658.89 471.64 657.553 476.876C656.415 479.531 654.797 481.901 653.751 484.9C653.4 484.9 653.048 484.9 652.696 484.9C648.448 474.741 642.02 464.87 631.366 461.251C608.875 453.825 586.744 470.308 581.104 485.745C577.62 495.568 579.451 509.391 588.073 512.561C597.641 516.079 609.27 507.41 607.291 498.625C606.792 498.684 607.028 498.578 606.446 498.836C604.79 507.219 593.301 513.363 586.806 505.382C579.455 496.349 587.634 481.42 593.353 476.243C596.424 473.677 600.454 471.335 604.546 469.697C608.552 468.093 615.076 466.628 620.596 467.586C624.862 468.326 627.684 468.198 631.155 469.486C643.264 473.957 648.607 486.562 650.373 500.948C650.513 501.018 650.654 501.089 650.795 501.159C650.865 501.159 650.936 501.159 651.006 501.159C659.81 494.18 662.964 469.617 665.367 455.128C665.944 451.646 666.602 440.518 665.367 437.813C665.226 437.813 665.085 437.813 664.944 437.813ZM752.375 480.044C752.539 481.473 752.991 481.573 753.642 482.366C761.307 485.952 765.422 502.084 762.723 512.561C762.371 512.491 762.019 512.421 761.667 512.35C761.385 511.013 761.104 509.675 760.822 508.338C760.611 508.268 760.4 508.198 760.189 508.127C759.766 508.338 759.344 508.55 758.921 508.76C757.394 512.978 753.247 516.566 750.474 519.741C747.021 523.694 744.072 527.953 740.76 531.987C735.661 538.198 728.221 542.678 723.865 549.513C721.631 553.207 720.605 558.256 719.641 563.238C718.917 567.541 720.351 572.66 719.641 575.907C714.932 576.871 710.848 581.044 705.703 581.397C701.099 575.528 696.41 569.572 691.765 563.661C691.483 552.119 691.202 540.573 690.92 529.031C693.568 528.033 698.35 529.18 702.113 528.609C707.291 527.823 712.65 528.127 717.107 526.286C725.489 522.825 737.787 510.474 742.449 503.059C742.023 500.66 730.776 489.863 728.511 488.49C728.159 488.56 727.807 488.631 727.455 488.701C723.964 492.429 721.949 497.313 717.952 500.526C709.637 507.209 692.376 518.326 680.361 519.318C677.607 514.139 674.385 500.004 678.249 493.346C680.361 491.939 682.473 490.531 684.584 489.123C688.597 485.675 692.631 482.225 696.622 478.777C706.681 470.16 716.451 452.624 721.33 438.658C721.683 438.728 722.035 438.798 722.386 438.869C724.073 445.083 732.59 452.077 736.536 456.817C737.926 458.487 740.409 459.175 741.182 461.462C741.111 461.533 741.041 461.603 740.971 461.673C738.777 461.418 738.163 460.259 735.902 460.617C735.902 460.829 735.902 461.04 735.902 461.251C739.096 462.693 740.884 466.576 743.294 468.853C748.573 472.864 753.895 476.898 759.132 480.888C759.062 481.029 758.992 481.17 758.921 481.311C756.739 480.888 754.557 480.466 752.375 480.044ZM421.871 457.028C432.087 457.761 441.978 457.844 450.17 459.35C453.336 459.93 458.89 459.648 460.518 461.673C450.927 461.561 442.253 461.077 434.12 463.151C431.029 463.94 427.867 465.983 425.039 466.741C421.473 467.722 415.829 465.123 411.101 465.896C404.704 467.077 399.343 468.743 394.417 471.175C394.417 471.386 394.417 471.598 394.417 471.809C394.488 471.879 394.558 471.949 394.628 472.02C401.544 471.466 409.033 470.958 414.902 473.287C414.902 473.639 414.902 473.991 414.902 474.343C411.518 476.026 410.786 480.212 407.933 482.366C400.37 482.238 395.852 484.852 390.405 486.589C390.405 486.941 390.405 487.293 390.405 487.645C390.616 487.716 390.827 487.786 391.038 487.856C395.415 489.658 402.176 488.724 404.132 492.502C405.054 495.093 402.98 503.436 404.132 507.916C406.694 517.787 414.617 528.303 423.35 531.987C423.138 532.269 422.927 532.551 422.716 532.832C406.825 532.901 394.865 527.209 387.026 518.474C379.675 510.348 374.469 497.956 356.826 501.581C352.124 508.532 350.35 528.995 353.659 538.956C359.89 557.716 381.952 574.071 407.511 565.983C422.461 561.289 432.338 550.748 442.567 541.278C456.176 528.758 467.439 513.854 480.158 500.526C485.108 495.338 489.589 489.448 495.575 485.322C501.475 481.256 506.253 475.259 512.892 471.809C513.032 471.879 513.173 471.949 513.314 472.02C509.656 479.107 504.259 485.407 500.854 493.135C495.993 504.278 493.651 516.724 488.394 527.131C485.083 533.807 478.208 537.431 474.456 543.39C472.798 546.023 472.057 549.475 471.288 552.892C470.603 556.672 472.719 563.347 470.866 566.194C469.951 566.898 469.036 567.602 468.121 568.306C463.546 572.489 459.288 576.353 454.183 580.131C435.053 594.348 404.9 606.777 375.199 594.7C363.657 590.007 352.956 579.855 346.056 570.206C344.485 567.816 343.61 565.178 341.832 562.816C339.632 559.892 334.754 550.506 335.075 546.346C334.582 544.045 334.089 541.7 333.596 539.378C332.017 532.294 333.362 521.85 335.286 516.573C340.245 502.971 347.609 489.876 357.671 481.311C368.991 471.674 381.502 464.383 398.219 459.984C403.427 459.14 408.637 458.295 413.846 457.45C416.521 457.309 419.196 457.169 421.871 457.028ZM460.729 461.884C461.011 461.884 461.292 461.884 461.574 461.884C461.574 461.955 461.574 462.025 461.574 462.095C461.292 462.025 461.011 461.955 460.729 461.884ZM366.752 477.932C354.071 488.356 350.742 491.698 345.634 510.027C344.824 512.932 343.048 520.074 344.578 523.964C344.864 524.5 344.814 524.304 345.211 524.597C345.422 524.456 345.634 524.316 345.845 524.175C345.52 505.945 356.229 486.489 367.175 479.41C367.175 478.917 367.175 478.425 367.175 477.932C367.034 477.932 366.893 477.932 366.752 477.932ZM498.531 488.49C496.349 490.46 494.166 492.432 491.984 494.402C486.114 500.595 480.158 506.79 474.245 512.984C459.636 530.138 440.716 552.557 420.815 563.872C411.862 568.962 397.41 574.55 383.013 570.629C372.526 567.773 361.306 561.097 355.771 553.103C354.363 550.921 352.955 548.739 351.547 546.557C350.593 544.625 350.73 542.189 349.224 540.856C349.013 540.997 348.801 541.138 348.59 541.278C348.59 541.349 348.59 541.419 348.59 541.49C351.089 561.792 383.882 580.915 409.834 572.107C439.799 561.936 460.916 530.388 480.581 508.972C483.362 505.943 498.565 491.626 499.165 488.912C498.954 488.771 498.742 488.631 498.531 488.49ZM623.13 503.693C635.563 505.015 647.722 515.181 643.403 531.143C640.354 542.809 631.366 552.77 621.44 557.748C621.159 557.678 620.877 557.608 620.596 557.537C622.144 554.3 623.693 551.061 625.242 547.824C625.101 547.754 624.96 547.683 624.819 547.613C614.63 553.563 586.743 560.726 581.738 569.573C579.187 574.09 587.257 583.482 589.129 586.676C593.483 594.106 597.821 601.331 602.645 608.214C606.588 613.841 609.316 620.98 614.894 624.895C618.241 627.245 622.217 628.023 626.086 629.963C626.72 632.989 627.354 636.016 627.987 639.043C627.776 639.254 627.565 639.465 627.353 639.676C618.78 639.113 610.036 638.55 601.378 637.987C600.604 635.474 599.829 632.919 599.055 630.385C597.338 626.067 595.402 621.787 593.142 617.927C587.576 608.424 577.883 603.484 570.123 596.178C570.123 596.108 570.123 596.038 570.123 595.967C570.263 595.897 570.404 595.826 570.545 595.756C573.338 595.753 574.295 596.788 576.669 597.234C576.74 597.023 576.81 596.812 576.88 596.601C576.81 596.319 576.74 596.038 576.669 595.756C573.274 593.598 571.517 588.186 569.067 584.987C565.17 579.9 560.11 576.575 556.607 571.051C558.387 560.04 574.843 550.957 581.949 544.023C581.879 543.671 581.808 543.319 581.738 542.967C573.987 541.912 566.109 540.856 558.296 539.8C558.367 539.589 558.437 539.378 558.508 539.167C576.822 535.637 589.707 530.574 602.856 522.486C605.025 521.183 606.763 518.778 608.769 517.418C613.97 513.891 619.784 509.002 623.13 503.693ZM340.143 524.597C336.308 530.067 340.403 535.094 343.311 538.111C343.944 537.97 344.578 537.829 345.211 537.689C346.792 531.597 345.027 526.112 340.143 524.597ZM341.832 544.868C339.503 550.129 342.076 558.24 347.323 557.748C347.323 557.467 347.323 557.185 347.323 556.904C346.307 556.383 345.783 555.31 345.211 554.37C345.422 553.666 345.634 552.962 345.845 552.258C345.986 552.188 346.127 552.118 346.267 552.047C347.662 553.085 348.208 554.444 348.59 556.481C348.872 556.481 349.153 556.481 349.435 556.481C349.576 556.27 349.717 556.059 349.858 555.848C352.26 550.341 346.191 545.037 341.832 544.868ZM465.798 560.916C461.504 565.068 457.209 569.221 452.915 573.374C445.516 579.07 437.342 584.28 428.629 588.577C424.335 590.195 420.041 591.815 415.747 593.433C412.409 594.465 408.602 594.163 405.821 595.756C405.892 595.967 405.962 596.178 406.033 596.389C410.729 597.754 418.104 595.018 421.66 593.645C435.451 588.318 446.818 583.212 455.872 573.374C457.557 571.745 467.555 562.988 465.798 560.916ZM354.081 561.971C352.673 562.464 351.265 562.957 349.858 563.449C348.207 565.975 357.568 573.777 361.895 569.995C362.455 569.649 362.18 569.916 362.317 569.151C359.925 569.195 358.415 568.513 357.46 566.828C357.53 566.687 357.601 566.546 357.671 566.406C359.984 566.154 361.218 567.49 363.373 567.039C363.373 566.828 363.373 566.617 363.373 566.406C360.477 564.06 359.695 561.91 354.081 561.971ZM364.218 571.051C362.127 571.614 359.994 572.177 357.883 572.74C357.812 573.162 357.742 573.585 357.671 574.007C360.271 580.861 366.222 584.704 375.199 581.82C375.27 581.468 375.34 581.116 375.411 580.764C373.369 580.623 371.328 580.483 369.286 580.342C369.216 580.201 369.146 580.06 369.075 579.919C369.797 579.164 369.767 579.53 369.497 578.652C368.149 578.208 366.799 577.27 366.119 576.119C366.259 576.048 366.4 575.978 366.541 575.907C369.463 576.876 370.052 576.462 372.665 575.907C374.19 576.861 375.224 578.386 377.1 578.864C377.171 578.793 377.241 578.723 377.311 578.652C377.241 578.23 377.171 577.808 377.1 577.386C375.049 572.678 370.423 571.031 364.218 571.051ZM434.965 578.23C432.681 578.569 431.739 581.039 429.896 582.031C429.826 582.031 429.755 582.031 429.685 582.031C429.549 581.264 429.6 581.392 429.263 580.975C427.855 581.468 426.447 581.961 425.039 582.453C425.039 582.242 425.039 582.031 425.039 581.82C425.039 581.749 425.039 581.679 425.039 581.609C426.236 580.764 427.432 579.919 428.629 579.075C428.488 578.864 428.348 578.652 428.207 578.441C427.996 578.301 427.784 578.16 427.573 578.019C428.788 576.985 431.113 576.572 432.853 576.119C432.923 575.837 432.994 575.556 433.064 575.274C432.923 575.274 432.782 575.274 432.642 575.274C426.396 572.474 415.266 581.591 417.436 586.465C418.141 588.036 423.715 587.992 425.884 587.521C430.132 586.597 434.745 583.214 434.965 578.23ZM406.033 575.063C401.526 577.231 395.103 579.216 395.473 585.198C405.258 589.34 410.872 587.44 416.592 580.975C416.592 580.694 416.592 580.412 416.592 580.131C416.451 580.131 416.31 580.131 416.169 580.131C415.817 580.06 415.465 579.99 415.113 579.919C414.122 581.25 412.314 582.506 410.467 582.876C410.186 582.453 409.904 582.031 409.622 581.609C407.863 581.82 406.103 582.031 404.343 582.242C404.343 581.961 404.343 581.679 404.343 581.397C405.72 581.028 407.595 580.053 408.355 579.075C408.088 578.339 408.005 578.328 407.933 577.808C410.256 577.526 412.6 577.245 414.902 576.963C413.065 575.264 409.599 575.002 406.033 575.063ZM384.281 576.33C382.802 576.893 381.324 577.456 379.846 578.019C379.846 578.371 379.846 578.723 379.846 579.075C380.638 582.165 388.146 588.731 391.883 584.142C391.742 583.932 391.601 583.72 391.461 583.509C389.239 583.371 388.488 583.146 387.448 581.397C387.659 581.257 387.871 581.116 388.082 580.975C390.336 579.91 391.033 582.179 393.15 581.82C393.15 581.749 393.15 581.679 393.15 581.609C391.402 578.503 389.216 576.307 384.281 576.33ZM378.579 583.298C377.382 583.439 376.185 583.58 374.988 583.72C373.44 584.565 371.891 585.41 370.342 586.254C370.342 586.606 370.342 586.958 370.342 587.31C374.692 589.463 381.737 593.954 385.548 587.099C384.201 585.172 381.193 583.921 378.579 583.298ZM390.405 588.154C388.012 589.702 385.805 589.984 383.858 591.955C383.928 592.166 383.999 592.378 384.069 592.589C386.23 597.262 395.209 597.976 398.008 593.433C397.867 593.433 397.726 593.433 397.585 593.433C396.049 593.062 394.08 593.747 392.517 592.8C392.517 592.729 392.517 592.659 392.517 592.589C392.587 592.307 392.657 592.026 392.728 591.744C394.197 591.528 397.079 591.876 397.796 591.111C397.726 590.9 397.655 590.688 397.585 590.477C395.319 589.458 393.667 588.516 390.405 588.154Z" fill="white"/>
<g filter="url(#filter0_g_76_924)">
<path d="M139.327 853.712C136.457 853.712 135.022 852.66 135.022 850.556C135.022 848.834 136.266 847.686 138.753 847.112L145.353 845.965C149.37 845.199 151.953 844.147 153.101 842.808C154.44 841.469 155.11 838.791 155.11 834.773V666.041C155.11 662.024 154.44 659.345 153.101 658.006C151.953 656.667 149.37 655.615 145.353 654.85L138.753 653.702C136.266 653.128 135.022 651.98 135.022 650.258C135.022 648.154 136.457 647.102 139.327 647.102H191.84C194.71 647.102 196.145 648.249 196.145 650.545C196.145 652.267 195.093 653.319 192.988 653.702L185.24 654.85C181.223 655.423 178.545 656.476 177.205 658.006C176.058 659.537 175.484 662.311 175.484 666.328V743.807C175.484 745.72 176.058 746.868 177.205 747.251C178.353 747.633 179.405 746.964 180.362 745.242L227.423 671.493C233.736 661.737 233.163 656.189 225.702 654.85L219.102 653.702C216.615 653.128 215.371 651.884 215.371 649.971C215.371 648.058 216.71 647.102 219.389 647.102H268.172C270.85 647.102 272.189 648.154 272.189 650.258C272.189 652.363 270.946 653.51 268.459 653.702L263.006 654.276C257.076 654.85 252.198 656.571 248.371 659.441C244.545 662.31 240.241 667.476 235.458 674.937L203.032 725.729C201.119 728.981 201.023 732.137 202.745 735.198L256.693 836.782C258.224 839.843 259.754 842.043 261.285 843.382C263.006 844.721 265.015 845.582 267.311 845.965L274.198 847.112C276.493 847.304 277.641 848.452 277.641 850.556C277.641 852.66 276.302 853.712 273.624 853.712H222.545C219.867 853.712 218.528 852.66 218.528 850.556C218.528 848.643 219.771 847.495 222.258 847.112L227.136 846.538C234.597 845.582 236.128 840.895 231.728 832.477L190.406 753.851C189.64 752.32 188.78 751.555 187.823 751.555C186.866 751.364 185.91 752.033 184.953 753.564L178.927 763.033C177.588 764.946 176.632 766.764 176.058 768.486C175.675 770.207 175.484 772.407 175.484 775.086V834.486C175.484 838.504 176.058 841.278 177.205 842.808C178.545 844.338 181.223 845.391 185.24 845.965L192.988 847.112C195.093 847.495 196.145 848.547 196.145 850.269C196.145 852.565 194.71 853.712 191.84 853.712H139.327ZM268.12 853.712C265.25 853.712 263.816 852.756 263.816 850.843C263.816 848.93 265.155 847.686 267.833 847.112L272.137 846.252C275.964 845.486 278.833 843.669 280.746 840.799C282.659 837.738 284.285 833.53 285.625 828.173L330.103 648.823C330.486 646.91 331.06 645.667 331.825 645.093C332.782 644.519 333.642 644.232 334.408 644.232C335.364 644.232 336.225 644.519 336.99 645.093C337.947 645.667 338.616 646.91 338.999 648.823L384.339 830.756C385.678 836.112 387.208 839.843 388.93 841.947C390.652 844.051 393.33 845.486 396.965 846.252L401.269 847.112C403.948 847.686 405.287 848.93 405.287 850.843C405.287 852.756 403.852 853.712 400.982 853.712H351.912C349.234 853.712 347.895 852.66 347.895 850.556C347.895 848.452 349.521 847.304 352.773 847.112L358.225 846.538C361.478 846.156 363.486 845.104 364.251 843.382C365.208 841.66 365.208 838.695 364.251 834.486L353.347 790.007C352.199 785.033 349.043 782.547 343.877 782.547H313.747C308.773 782.547 305.616 785.033 304.277 790.007L294.52 828.46C291.651 839.364 294.52 845.391 303.129 846.538L307.433 847.112C310.686 847.686 312.312 848.834 312.312 850.556C312.312 852.66 310.973 853.712 308.294 853.712H268.12ZM312.886 773.938H344.451C347.512 773.938 348.756 772.312 348.182 769.059L329.816 692.154H328.382L309.155 769.059C308.581 772.312 309.825 773.938 312.886 773.938ZM427.681 853.712C424.811 853.712 423.376 852.66 423.376 850.556C423.376 848.452 424.62 847.304 427.107 847.112L440.02 845.104C443.846 844.53 446.429 843.573 447.768 842.234C449.107 840.704 449.777 837.93 449.777 833.912V661.737C449.777 659.058 449.203 657.145 448.055 655.997C446.907 654.85 444.516 654.276 440.881 654.276C433.803 654.276 426.82 657.337 419.933 663.458C413.046 669.58 408.55 679.432 406.446 693.015L405.011 702.485C404.628 704.972 403.289 706.215 400.993 706.215C398.124 706.215 396.88 704.589 397.263 701.337L399.846 649.397C400.228 644.997 401.95 642.797 405.011 642.797C406.35 642.797 407.594 643.18 408.741 643.945C409.889 644.519 411.802 645.189 414.481 645.954C417.35 646.719 421.846 647.102 427.968 647.102H491.96C498.081 647.102 502.481 646.719 505.16 645.954C508.029 645.189 510.038 644.519 511.186 643.945C512.525 643.18 513.769 642.797 514.916 642.797C517.977 642.797 519.699 644.997 520.082 649.397L522.664 701.337C523.047 704.589 521.803 706.215 518.934 706.215C516.638 706.215 515.299 704.972 514.916 702.485L513.482 693.015C511.569 679.432 507.168 669.58 500.281 663.458C493.394 657.337 486.316 654.276 479.046 654.276C475.412 654.276 473.02 654.85 471.872 655.997C470.725 657.145 470.151 659.058 470.151 661.737V833.912C470.151 837.93 470.82 840.704 472.159 842.234C473.69 843.573 476.273 844.53 479.907 845.104L492.821 847.112C495.307 847.304 496.551 848.452 496.551 850.556C496.551 852.66 495.116 853.712 492.247 853.712H427.681ZM518.918 853.712C516.049 853.712 514.614 852.756 514.614 850.843C514.614 848.93 515.953 847.686 518.631 847.112L522.936 846.252C526.762 845.486 529.631 843.669 531.544 840.799C533.457 837.738 535.084 833.53 536.423 828.173L580.901 648.823C581.284 646.91 581.858 645.667 582.623 645.093C583.58 644.519 584.441 644.232 585.206 644.232C586.162 644.232 587.023 644.519 587.788 645.093C588.745 645.667 589.415 646.91 589.797 648.823L635.137 830.756C636.476 836.112 638.006 839.843 639.728 841.947C641.45 844.051 644.128 845.486 647.763 846.252L652.067 847.112C654.746 847.686 656.085 848.93 656.085 850.843C656.085 852.756 654.65 853.712 651.78 853.712H602.71C600.032 853.712 598.693 852.66 598.693 850.556C598.693 848.452 600.319 847.304 603.571 847.112L609.023 846.538C612.276 846.156 614.284 845.104 615.05 843.382C616.006 841.66 616.006 838.695 615.05 834.486L604.145 790.007C602.997 785.033 599.841 782.547 594.675 782.547H564.545C559.571 782.547 556.414 785.033 555.075 790.007L545.318 828.46C542.449 839.364 545.318 845.391 553.927 846.538L558.232 847.112C561.484 847.686 563.11 848.834 563.11 850.556C563.11 852.66 561.771 853.712 559.092 853.712H518.918ZM563.684 773.938H595.249C598.31 773.938 599.554 772.312 598.98 769.059L580.614 692.154H579.18L559.953 769.059C559.379 772.312 560.623 773.938 563.684 773.938ZM782.997 856.295C766.353 856.295 755.736 845.391 751.145 823.582L744.545 791.729C742.44 781.399 740.049 773.555 737.371 768.199C734.884 762.842 731.344 759.207 726.753 757.294C722.353 755.381 716.231 754.424 708.388 754.424C705.709 754.424 703.605 755.19 702.075 756.72C700.544 758.059 699.779 759.781 699.779 761.885V833.625C699.779 837.643 700.544 840.417 702.075 841.947C703.605 843.286 707.048 844.434 712.405 845.391L723.023 847.112C725.127 847.495 726.179 848.547 726.179 850.269C726.179 852.565 724.744 853.712 721.875 853.712H663.622C660.752 853.712 659.318 852.66 659.318 850.556C659.318 848.834 660.561 847.686 663.048 847.112L669.648 845.965C673.666 845.199 676.248 844.147 677.396 842.808C678.735 841.469 679.405 838.791 679.405 834.773V666.041C679.405 662.024 678.735 659.345 677.396 658.006C676.248 656.667 673.666 655.615 669.648 654.85L663.048 653.702C660.561 653.128 659.318 651.98 659.318 650.258C659.318 648.154 660.752 647.102 663.622 647.102H721.875C733.162 647.102 743.205 649.302 752.005 653.702C760.806 658.102 767.693 664.224 772.667 672.067C777.641 679.719 780.128 688.615 780.128 698.754C780.128 710.807 776.493 721.711 769.223 731.468C761.953 741.033 752.771 747.824 741.675 751.842C740.336 752.224 739.571 752.894 739.379 753.851C739.379 754.616 740.049 755.285 741.388 755.859C747.51 758.729 752.292 762.746 755.736 767.912C759.371 773.077 762.145 779.964 764.058 788.573L770.371 817.843C772.475 827.79 774.962 834.869 777.832 839.078C780.701 843.286 784.336 845.391 788.736 845.391C790.267 845.391 791.606 845.199 792.754 844.817C794.093 844.243 795.719 843.286 797.632 841.947C799.162 840.991 800.597 840.799 801.936 841.373C803.276 841.756 803.945 842.712 803.945 844.243C803.945 847.495 801.841 850.365 797.632 852.852C793.423 855.147 788.545 856.295 782.997 856.295ZM719.005 747.251C732.014 747.251 741.866 742.946 748.562 734.337C755.258 725.537 758.606 713.868 758.606 699.328C758.606 685.172 754.684 674.171 746.84 666.328C739.188 658.293 728.57 654.276 714.988 654.276C704.848 654.276 699.779 658.102 699.779 665.754V731.468C699.779 741.99 706.188 747.251 719.005 747.251ZM813.121 853.712C810.251 853.712 808.817 852.66 808.817 850.556C808.817 848.834 810.06 847.686 812.547 847.112L819.147 845.965C823.165 845.199 825.747 844.147 826.895 842.808C828.234 841.469 828.904 838.791 828.904 834.773V666.041C828.904 662.024 828.234 659.345 826.895 658.006C825.747 656.667 823.165 655.615 819.147 654.85L812.547 653.702C810.06 653.128 808.817 651.98 808.817 650.258C808.817 648.154 810.251 647.102 813.121 647.102H865.061C867.93 647.102 869.365 648.154 869.365 650.258C869.365 651.98 868.122 653.128 865.635 653.702L859.034 654.85C855.017 655.615 852.339 656.667 851 658.006C849.852 659.345 849.278 662.024 849.278 666.041V834.773C849.278 838.791 849.852 841.469 851 842.808C852.339 844.147 855.017 845.199 859.034 845.965L865.635 847.112C868.122 847.686 869.365 848.834 869.365 850.556C869.365 852.66 867.93 853.712 865.061 853.712H813.121Z" fill="white"/>
</g>
<path d="M244.424 127.853C262.654 127.853 280.031 131.503 295.867 138.108C288.783 136.588 281.431 135.787 273.893 135.787C245.761 135.787 220.233 146.928 201.476 165.037C201.502 164.69 201.509 164.497 201.509 164.497C201.496 164.499 192.482 165.292 186.766 171.359C181.046 177.43 178.373 184.201 180.795 186.483C181.532 187.177 182.655 187.374 184.023 187.143C174.869 202.656 169.617 220.746 169.617 240.063C169.617 297.652 216.303 344.338 273.893 344.338C277.351 344.338 280.77 344.167 284.143 343.838C284.329 345.269 285.069 346.742 286.314 347.915C288.793 350.25 292.338 350.512 294.232 348.501C295.455 347.203 294.658 344.304 293.939 342.411C338.716 333.691 373.249 296.322 377.684 250.158C378.003 253.929 378.168 257.744 378.168 261.598C378.168 335.463 318.289 395.342 244.424 395.342C212.769 395.342 183.682 384.345 160.776 365.962C163.056 367.272 165.73 367.157 167.288 365.503C169.183 363.492 166.231 357.633 166.231 357.633C166.171 357.607 160.199 355.046 158.313 357.047C156.551 358.917 156.837 362.095 158.879 364.409C155.117 361.275 151.53 357.94 148.135 354.418C148.141 354.409 148.149 354.4 148.155 354.39C151.522 349.364 148.145 341.198 148.145 341.198C148.099 341.198 142.71 341.197 138.759 343.595C121.16 320.95 110.679 292.498 110.679 261.598C110.679 243.143 114.417 225.561 121.177 209.568C123.77 210.241 127.793 205.498 127.825 205.459C127.825 205.459 127.846 200.834 126.318 198.786C148.811 156.581 193.262 127.853 244.424 127.853Z" fill="white"/>
<defs>
<filter id="filter0_g_76_924" x="131.867" y="639.642" width="740.653" height="219.808" filterUnits="userSpaceOnUse" color-interpolation-filters="sRGB">
<feFlood flood-opacity="0" result="BackgroundImageFix"/>
<feBlend mode="normal" in="SourceGraphic" in2="BackgroundImageFix" result="shape"/>
<feTurbulence type="fractalNoise" baseFrequency="0.015289033763110638 0.015289033763110638" numOctaves="3" seed="1703" />
<feDisplacementMap in="shape" scale="6.3100748062133789" xChannelSelector="R" yChannelSelector="G" result="displacedImage" width="100%" height="100%" />
<feMerge result="effect1_texture_76_924">
<feMergeNode in="displacedImage"/>
</feMerge>
</filter>
</defs>
</svg>
